<?xml version="1.0" encoding="utf-8"?>
<!-- Generator: Adobe Illustrator 18.1.1, SVG Export Plug-In . SVG Version: 6.00 Build 0)  -->
<svg version="1.1" id="Layer_1" xmlns="http://www.w3.org/2000/svg" xmlns:xlink="http://www.w3.org/1999/xlink" x="0px" y="0px"
	 viewBox="-285 381 41 32" enable-background="new -285 381 41 32" xml:space="preserve">
<path fill="#444444" d="M-276.8,385.7h8v4.8h-8C-276.8,390.5-276.8,385.7-276.8,385.7z"/>
<path fill="#444444" d="M-267.8,385.7h8v4.8h-8V385.7z"/>
<path fill="#444444" d="M-258.8,385.7h8v4.8h-8V385.7z"/>
<path fill="#444444" d="M-279.8,382.4v29.2h32v-29.2C-247.8,382.4-279.8,382.4-279.8,382.4z M-277.9,409.6v-25.3h28.1v25.3
	C-249.8,409.6-277.9,409.6-277.9,409.6z"/>
<path display="none" fill="#444444" d="M-265.9,395.7c0-0.7,0.6-1.3,1.3-1.3c0.7,0,1.3,0.6,1.3,1.3c0,0.7-0.6,1.3-1.3,1.3
	C-265.3,397-265.9,396.4-265.9,395.7z M-261.7,399.6L-261.7,399.6c0-0.6,0.5-1.1,1.1-1.1c0.6,0,1.1,0.5,1.1,1.1l0,0
	c0,0.6-0.5,1.1-1.1,1.1C-261.3,400.7-261.7,400.2-261.7,399.6z M-262.8,402.4c0-0.5,0.4-1,1-1c0.5,0,1,0.4,1,1c0,0.5-0.4,1-1,1
	C-262.3,403.4-262.8,403-262.8,402.4z M-265.5,403.6c0-0.5,0.4-0.9,0.9-0.9s0.9,0.4,0.9,0.9c0,0.5-0.4,0.9-0.9,0.9
	C-265.1,404.4-265.5,404.1-265.5,403.6z M-268.2,402.4c0-0.4,0.4-0.8,0.8-0.8s0.8,0.4,0.8,0.8c0,0.4-0.4,0.8-0.8,0.8
	S-268.2,402.9-268.2,402.4z M-269.2,399.6c0-0.4,0.3-0.7,0.7-0.7c0.4,0,0.7,0.3,0.7,0.7c0,0.4-0.3,0.7-0.7,0.7
	C-268.9,400.4-269.2,400-269.2,399.6z M-268,396.9L-268,396.9c0-0.4,0.3-0.7,0.7-0.7s0.7,0.3,0.7,0.7l0,0c0,0.4-0.3,0.7-0.7,0.7
	S-268,397.2-268,396.9z M-260.6,396.9c0,0.7-0.5,1.2-1.2,1.2s-1.2-0.5-1.2-1.2c0-0.7,0.5-1.2,1.2-1.2S-260.6,396.2-260.6,396.9z"/>
<g>
	<path fill="#444444" d="M-258.4,401.8l5.1-7.5v0h-4.7v-1h6.2v0.7l-5.1,7.4v0h5.1v1h-6.7V401.8z"/>
</g>
<g>
	<path fill="#444444" d="M-266.4,403.5l4.1-6v0h-3.7v-0.8h5v0.6l-4.1,5.9v0h4.1v0.8h-5.4V403.5z"/>
</g>
<g>
	<path fill="#444444" d="M-274.4,406.1l3.3-4.8v0h-3v-0.6h4v0.5l-3.2,4.8v0h3.3v0.6h-4.3V406.1z"/>
</g>
</svg>
